<?xml version="1.0" encoding="UTF-8"?>
<svg id="Layer_2" data-name="Layer 2" xmlns="http://www.w3.org/2000/svg" viewBox="0 0 1024 1024">
  <defs>
    <style>
      .cls-1 {
        fill: none;
      }

      .cls-2 {
        fill: blue;
      }
    </style>
  </defs>
  <g id="Layer_1-2" data-name="Layer 1">
    <g>
      <g>
        <path class="cls-2" d="M766.17,763.71c-30.9-32.32-79.62-30.57-109.28.82l-38.15,40.37c-59.78,63.27-156.43,59.74-216.57-3.1l-39.86-41.64c-27.33-28.55-74.65-27.32-102.16,1.42l-44.26,46.23c-26.55,27.73-60.66,41.7-99.1,43.58-22.14,1.09-39.79-13.54-39.65-36.5l.21-33.11,39.92-.57c15.51-.22,33.3-7.31,44.03-18.42l41.78-43.24c59.71-61.8,154.48-64.34,215.01-2.83l46.57,47.32c25.28,25.68,71.21,24.31,96.27-1.33l43.55-44.55c60.16-61.53,154.54-61.6,214.91,0l44.93,45.85c11.29,11.52,29.65,17.33,45.37,17.42l37.18.2-.37,36.38c-.2,19.68-17.12,33.44-36.13,33.21-38.85-.48-73.99-14.13-100.65-42.02l-43.53-45.52Z"/>
        <path class="cls-2" d="M604.57,658.01c-53.56,46.38-136.36,45.05-188.4-2.7l-49.53-50.72c-31.28-32.03-79.46-30.58-110.73,1.41l-49.24,50.38c-19.32,19.76-45.02,28.59-71.83,34.42l-57.55.62v-311.99s434.54-206.88,434.54-206.88l434.85,206.82.08,311.96-60.33-1c-24.66-5.97-49.47-14.1-67.54-32.5l-50.83-51.78c-32.22-32.81-80.15-32.74-112.38.02l-51.1,51.94ZM458.22,599.32c29.3,31.04,78.31,31.17,107.05.63l35.07-37.27c31.78-33.77,71.35-52.79,117.35-51.28,42.2,1.38,81.02,21.84,110.07,56.18,15.4,16.43,28.96,32.91,49.39,46.21l-.12-190.29-365.09-173.63-365.21,173.74.11,189.93c15.36-9.72,26.68-20.86,37.52-33.87l34.94-34.59c61.11-51.42,148.65-41.38,202.74,15.93l36.17,38.32Z"/>
      </g>
      <rect class="cls-1" width="1024" height="1024"/>
    </g>
  </g>
</svg>